<mxfile host="app.diagrams.net" modified="2023-05-08T09:00:57.969Z" agent="Mozilla/5.0 (Windows NT 10.0; Win64; x64) AppleWebKit/537.36 (KHTML, like Gecko) Chrome/112.0.0.0 Safari/537.36" version="21.2.2" etag="dI9INA0ug0NYnZIxOBRm" type="github">
  <diagram name="Page-1" id="GTRwFBnW5ZTNtZ9E9qsw">
    <mxGraphModel>
      <root>
        <mxCell id="0" />
        <mxCell id="1" parent="0" />
      </root>
    </mxGraphModel>
  </diagram>
</mxfile>
